<svg width="56" height="51" viewBox="0 0 56 51" fill="none" xmlns="http://www.w3.org/2000/svg">
<g id="github">
<path id="Vector" d="M28 4.25C24.9358 4.25 21.9016 4.79965 19.0707 5.86756C16.2397 6.93547 13.6675 8.50074 11.5008 10.474C7.12495 14.4591 4.66663 19.8641 4.66663 25.5C4.66663 34.8925 11.3633 42.8612 20.6266 45.6875C21.7933 45.8575 22.1666 45.1987 22.1666 44.625C22.1666 44.1362 22.1666 42.7975 22.1666 41.0337C15.7033 42.3088 14.3266 38.1862 14.3266 38.1862C13.2533 35.7212 11.7366 35.0625 11.7366 35.0625C9.61329 33.745 11.9 33.7875 11.9 33.7875C14.2333 33.9362 15.47 35.9762 15.47 35.9762C17.5 39.2062 20.93 38.25 22.26 37.74C22.47 36.3587 23.0766 35.4237 23.73 34.8925C18.55 34.3612 13.1133 32.5338 13.1133 24.4375C13.1133 22.0788 14 20.1875 15.5166 18.6788C15.2833 18.1475 14.4666 15.9375 15.75 13.0688C15.75 13.0688 17.71 12.495 22.1666 15.2362C24.01 14.7688 26.0166 14.535 28 14.535C29.9833 14.535 31.99 14.7688 33.8333 15.2362C38.29 12.495 40.25 13.0688 40.25 13.0688C41.5333 15.9375 40.7166 18.1475 40.4833 18.6788C42 20.1875 42.8866 22.0788 42.8866 24.4375C42.8866 32.555 37.4266 34.34 32.2233 34.8713C33.0633 35.53 33.8333 36.8263 33.8333 38.8025C33.8333 41.65 33.8333 43.945 33.8333 44.625C33.8333 45.1987 34.2066 45.8787 35.3966 45.6875C44.66 42.84 51.3333 34.8925 51.3333 25.5C51.3333 22.7094 50.7298 19.9461 49.5572 17.368C48.3845 14.7898 46.6658 12.4472 44.4991 10.474C42.3324 8.50074 39.7602 6.93547 36.9292 5.86756C34.0983 4.79965 31.0641 4.25 28 4.25Z" fill="white"/>
</g>
</svg>
