<svg width="56" height="51" viewBox="0 0 56 51" fill="none" xmlns="http://www.w3.org/2000/svg">
<g id="linkedin">
<path id="Vector" d="M43.2034 6.24487C44.6356 6.24487 46.0093 6.76879 47.022 7.70137C48.0348 8.63395 48.6038 9.8988 48.6038 11.2177V46.0272C48.6038 47.3461 48.0348 48.6109 47.022 49.5435C46.0093 50.4761 44.6356 51 43.2034 51H5.40042C3.96814 51 2.59452 50.4761 1.58175 49.5435C0.568971 48.6109 0 47.3461 0 46.0272V11.2177C0 9.8988 0.568971 8.63395 1.58175 7.70137C2.59452 6.76879 3.96814 6.24487 5.40042 6.24487H43.2034ZM41.8532 44.784V31.6061C41.8532 29.4563 40.9258 27.3946 39.275 25.8745C37.6242 24.3544 35.3852 23.5004 33.0506 23.5004C30.7554 23.5004 28.0822 24.7934 26.7861 26.7328V23.9729H19.2525V44.784H26.7861V32.5261C26.7861 30.6115 28.4602 29.0451 30.5394 29.0451C31.542 29.0451 32.5035 29.4119 33.2124 30.0647C33.9214 30.7175 34.3197 31.6029 34.3197 32.5261V44.784H41.8532ZM10.4768 20.0692C11.6799 20.0692 12.8338 19.6291 13.6845 18.8458C14.5352 18.0624 15.0132 16.9999 15.0132 15.8921C15.0132 13.5797 12.988 11.6901 10.4768 11.6901C9.26654 11.6901 8.10583 12.1328 7.25003 12.9208C6.39424 13.7088 5.91346 14.7776 5.91346 15.8921C5.91346 18.2044 7.96562 20.0692 10.4768 20.0692ZM14.2301 44.784V23.9729H6.75052V44.784H14.2301Z" fill="white"/>
</g>
</svg>
