<svg width="406" height="186" viewBox="0 0 406 186" fill="none" xmlns="http://www.w3.org/2000/svg">
<g clip-path="url(#clip0_0_1)">
<path d="M65.7646 135.969H73.6396L80.2333 163.938L87.1396 135.969H92.7646L99.5458 164.062L106.265 135.969H114.14L104.233 177H95.8896L89.8896 151.844L83.8583 177H75.5458L65.7646 135.969ZM119.171 140.188C119.171 138.833 119.66 137.667 120.64 136.688C121.619 135.708 122.796 135.219 124.171 135.219C125.546 135.219 126.723 135.708 127.702 136.688C128.681 137.667 129.171 138.833 129.171 140.188C129.171 141.562 128.681 142.74 127.702 143.719C126.723 144.698 125.546 145.188 124.171 145.188C122.796 145.188 121.619 144.698 120.64 143.719C119.66 142.74 119.171 141.562 119.171 140.188ZM120.202 150.125H128.202V177H120.202V150.125ZM136.827 135.281H144.827V177H136.827V135.281ZM161.515 150.125V154.406C161.89 154.156 162.442 153.677 163.171 152.969C163.9 152.26 164.598 151.667 165.265 151.188C165.952 150.688 166.765 150.292 167.702 150C168.66 149.688 169.525 149.531 170.296 149.531C171.525 149.531 172.858 149.969 174.296 150.844C175.733 151.698 176.931 153.229 177.89 155.438C179.556 153.312 181.181 151.802 182.765 150.906C184.369 149.99 185.858 149.531 187.233 149.531C189.671 149.531 191.733 150.542 193.421 152.562C195.108 154.562 195.952 157.031 195.952 159.969V177H187.952V162.094C187.952 160.615 187.546 159.375 186.733 158.375C185.921 157.354 184.942 156.844 183.796 156.844C182.421 156.844 181.233 157.417 180.233 158.562C179.233 159.708 178.733 161.073 178.733 162.656V177H170.796V162.469C170.796 160.906 170.379 159.594 169.546 158.531C168.733 157.448 167.744 156.906 166.577 156.906C165.202 156.906 164.015 157.5 163.015 158.688C162.015 159.854 161.515 161.26 161.515 162.906V177H153.452V150.125H161.515ZM228.796 165.469H209.64C209.744 167.198 210.306 168.604 211.327 169.688C212.369 170.771 213.577 171.312 214.952 171.312C217.41 171.312 219.338 170.198 220.733 167.969L228.077 170.406C225.348 175.177 221.108 177.562 215.358 177.562C211.129 177.562 207.765 176.281 205.265 173.719C202.765 171.156 201.515 167.708 201.515 163.375C201.515 159.479 202.827 156.208 205.452 153.562C208.098 150.917 211.348 149.594 215.202 149.594C219.077 149.594 222.306 150.99 224.89 153.781C227.494 156.552 228.796 160.021 228.796 164.188V165.469ZM209.702 160.094H220.515C219.765 156.74 218.046 155.062 215.358 155.062C213.817 155.062 212.535 155.5 211.515 156.375C210.515 157.25 209.91 158.49 209.702 160.094ZM242.077 150.125V154.094H242.202C242.994 152.76 243.91 151.708 244.952 150.938C246.015 150.146 246.994 149.75 247.89 149.75C248.431 149.75 248.921 149.792 249.358 149.875V158.625C248.692 158.5 248.035 158.438 247.39 158.438C245.744 158.438 244.463 159.021 243.546 160.188C242.65 161.333 242.202 162.948 242.202 165.031V177H234.077V150.125H242.077ZM294.983 139.688L289.483 145.719C286.588 144.01 284.504 143.156 283.233 143.156C282.254 143.156 281.41 143.531 280.702 144.281C279.994 145.01 279.64 145.885 279.64 146.906C279.64 148.927 281.473 150.677 285.14 152.156C287.827 153.302 289.858 154.344 291.233 155.281C292.608 156.198 293.754 157.479 294.671 159.125C295.608 160.771 296.077 162.552 296.077 164.469C296.077 167.99 294.65 171.052 291.796 173.656C288.963 176.26 285.608 177.562 281.733 177.562C277.483 177.562 273.285 175.562 269.14 171.562L274.952 164.781C277.556 167.469 279.994 168.812 282.265 168.812C283.327 168.812 284.348 168.344 285.327 167.406C286.306 166.448 286.796 165.448 286.796 164.406C286.796 162.26 284.535 160.375 280.015 158.75C277.431 157.812 275.598 156.938 274.515 156.125C273.431 155.292 272.515 154.094 271.765 152.531C271.035 150.948 270.671 149.333 270.671 147.688C270.671 144.042 271.858 141.083 274.233 138.812C276.608 136.542 279.713 135.406 283.546 135.406C288.088 135.406 291.9 136.833 294.983 139.688ZM300.233 172.531C300.233 171.156 300.723 169.979 301.702 169C302.681 168.021 303.858 167.531 305.233 167.531C306.608 167.531 307.785 168.021 308.765 169C309.744 169.979 310.233 171.156 310.233 172.531C310.233 173.885 309.744 175.052 308.765 176.031C307.785 177.01 306.608 177.5 305.233 177.5C303.858 177.5 302.681 177.01 301.702 176.031C300.723 175.052 300.233 173.885 300.233 172.531Z" fill="white"/>
<path d="M47.7188 167.406L12.9688 152.875V146.875L47.7188 132.344V139.562L22.125 149.875L47.7188 160.125V167.406Z" fill="#CD2044"/>
<path d="M358.316 136.344L393.066 150.812V156.875L358.316 171.406V164.125L383.91 153.875L358.316 143.562V136.344Z" fill="#CD2044"/>
<path d="M342.272 124.906H346.959L331.022 180.781H326.334L342.272 124.906Z" fill="#CD2044"/>
<circle cx="314" cy="25" r="9" fill="#E5224A"/>
<circle cx="342" cy="25" r="9" fill="#E5BA22"/>
<circle cx="370" cy="25" r="9" fill="#55E522"/>
<g clip-path="url(#clip1_0_1)">
<path fill-rule="evenodd" clip-rule="evenodd" d="M184.641 46C183.543 46.04 182.72 46.27 182.151 46.66C181.827 46.88 181.592 47.16 181.435 47.5C181.268 47.87 181.19 48.33 181.2 48.85C181.239 50.38 182.033 52.38 183.553 54.68L183.573 54.71L188.505 62.71C190.485 65.92 192.554 69.19 195.133 71.59C197.614 73.9 200.614 75.46 204.595 75.47C208.9 75.48 212.047 73.86 214.607 71.42C217.264 68.88 219.362 65.4 221.431 61.93L226.991 52.6C228.03 50.19 228.403 48.58 228.167 47.63C228.03 47.07 227.422 46.79 226.383 46.74C226.167 46.73 225.932 46.73 225.706 46.73C225.461 46.74 225.196 46.75 224.932 46.78C224.784 46.79 224.637 46.78 224.5 46.75C224.01 46.78 223.5 46.74 222.98 46.67L224.882 38.08C210.763 40.35 200.203 29.66 185.289 35.94L186.357 46.06C185.73 46.1 185.161 46.08 184.641 46ZM188.76 107.09H191.907C193.937 107.09 195.31 107.19 196.025 107.38C196.741 107.57 197.29 107.88 197.663 108.32C198.036 108.75 198.271 109.24 198.359 109.77C198.457 110.31 198.496 111.35 198.496 112.92V118.7C198.496 120.18 198.428 121.17 198.29 121.67C198.153 122.17 197.918 122.56 197.575 122.84C197.232 123.12 196.82 123.32 196.31 123.43C195.81 123.54 195.055 123.6 194.055 123.6H188.75V107.09H188.76ZM192.976 109.91V120.78C193.574 120.78 193.937 120.65 194.074 120.41C194.211 120.16 194.28 119.49 194.28 118.38V111.96C194.28 111.21 194.251 110.73 194.211 110.52C194.162 110.31 194.064 110.15 193.898 110.06C193.731 109.96 193.427 109.91 192.976 109.91ZM200.781 107.09H207.792V110.39H204.988V113.54H207.606V116.67H204.988V120.3H208.076V123.6H200.771V107.09H200.781ZM219.97 107.09L217.842 123.59H211.469L209.027 107.09H213.469C213.969 111.64 214.332 115.49 214.567 118.63C214.793 115.45 215.038 112.63 215.263 110.16L215.538 107.08H219.97V107.09ZM185.044 106.21V109.32H184.622C184.239 109.32 183.945 109.4 183.749 109.57C183.553 109.74 183.416 109.99 183.337 110.35C183.288 110.54 183.269 111.06 183.259 111.91C183.249 112.76 183.161 113.44 182.994 113.93C182.867 114.31 182.69 114.61 182.465 114.84C182.288 115.01 182.004 115.18 181.602 115.36C182.014 115.56 182.327 115.76 182.524 115.98C182.729 116.19 182.896 116.52 183.043 116.95C183.19 117.38 183.259 118.08 183.259 119.03C183.259 119.89 183.308 120.44 183.386 120.7C183.475 120.96 183.612 121.15 183.818 121.25C184.024 121.36 184.426 121.41 185.034 121.41V124.48H183.867C182.661 124.48 181.798 124.34 181.288 124.07C180.778 123.8 180.415 123.41 180.2 122.89C179.984 122.37 179.876 121.6 179.876 120.56C179.876 120.33 179.886 120.1 179.896 119.88C179.906 119.74 179.906 119.6 179.906 119.45C179.906 118.71 179.837 118.19 179.709 117.88C179.582 117.57 179.396 117.34 179.141 117.2C178.896 117.06 178.543 116.99 178.072 116.97V113.72C178.552 113.72 178.915 113.64 179.151 113.49C179.386 113.34 179.572 113.1 179.7 112.79C179.827 112.48 179.886 111.94 179.886 111.2V110.88C179.876 110.73 179.876 110.59 179.876 110.44C179.876 109.32 179.964 108.5 180.151 108.01C180.337 107.51 180.582 107.12 180.906 106.86C181.151 106.65 181.474 106.5 181.896 106.4C182.445 106.27 183.073 106.2 183.779 106.2H185.044V106.21ZM223.686 106.21V109.32H224.098C224.48 109.32 224.775 109.4 224.971 109.57C225.167 109.74 225.304 109.99 225.383 110.35C225.432 110.54 225.451 111.06 225.461 111.91C225.471 112.76 225.559 113.44 225.726 113.93C225.853 114.31 226.03 114.61 226.255 114.84C226.432 115.01 226.716 115.18 227.118 115.36C226.706 115.56 226.393 115.76 226.196 115.98C225.99 116.19 225.824 116.52 225.677 116.95C225.53 117.38 225.461 118.08 225.461 119.03C225.461 119.89 225.422 120.44 225.334 120.7C225.245 120.96 225.108 121.15 224.902 121.25C224.696 121.36 224.294 121.41 223.686 121.41V124.48H224.853C226.069 124.48 226.922 124.34 227.432 124.07C227.942 123.8 228.305 123.41 228.52 122.89C228.736 122.37 228.844 121.6 228.844 120.56C228.844 120.33 228.834 120.1 228.824 119.88C228.814 119.74 228.814 119.6 228.814 119.45C228.814 118.71 228.883 118.19 229.011 117.88C229.138 117.57 229.324 117.34 229.579 117.2C229.824 117.06 230.177 116.99 230.648 116.97V113.72C230.168 113.72 229.805 113.64 229.569 113.49C229.324 113.34 229.148 113.1 229.02 112.79C228.893 112.48 228.834 111.94 228.834 111.2V110.88C228.844 110.73 228.844 110.59 228.844 110.44C228.844 109.32 228.756 108.5 228.569 108.01C228.383 107.51 228.128 107.12 227.814 106.86C227.569 106.65 227.246 106.5 226.824 106.4C226.275 106.27 225.647 106.2 224.941 106.2H223.686V106.21ZM228.246 44.19C228.452 35.42 230.03 26.56 223.912 19.37C219.558 14.25 208.204 9.42 200.84 9.01C197.732 8.84 198.918 11.42 195.849 12.5C189.515 14.73 183.975 19.47 182.161 26.05C181.867 27.13 181.661 28.22 181.553 29.31C181.347 33.89 181.465 39.35 181.788 43.69C181.347 43.86 180.945 44.07 180.592 44.31C179.827 44.83 179.268 45.51 178.896 46.32C178.543 47.09 178.386 47.97 178.415 48.94C178.474 51 179.405 53.5 181.21 56.25L186.142 64.25C187.867 67.05 189.672 69.9 191.868 72.31C191.76 72.63 191.878 72.28 191.809 72.49C191.201 74.37 190.181 77.51 189.27 79.27C183.279 83.27 169.561 84.3 164.237 87.33C149.705 95.59 154.951 112.62 154.774 126.68C155.059 129.82 156.804 131.62 160.236 131.89H163.952L159.883 100.39C159.569 97.94 161.275 95.93 163.374 95.93H182.465H204.997C204.223 90.83 191.289 85.91 190.829 82.07C190.956 81.98 191.074 81.86 191.172 81.72C192.27 80.16 193.407 76.91 194.192 74.54C196.967 76.83 200.301 78.33 204.585 78.34C208.429 78.35 211.498 77.26 214.077 75.49C214.332 75.86 214.587 76.25 214.861 76.66C216.087 78.5 217.519 80.63 218.852 82.15C218.568 86.52 207.351 86.57 206.076 95.93H246.013C248.111 95.93 249.827 97.94 249.504 100.39L245.434 131.89H249.151C252.583 131.62 254.328 129.82 254.622 126.68C253.651 113.39 258.534 94.93 245.16 87.33C239.904 84.34 226.471 83.3 220.362 79.43C219.333 78.13 218.225 76.47 217.244 75.01C216.93 74.53 216.626 74.08 216.342 73.67L216.489 73.54C219.421 70.74 221.627 67.09 223.794 63.45L229.422 54C229.452 53.95 229.481 53.89 229.511 53.84C230.825 50.79 231.256 48.55 230.864 46.97C230.491 45.5 229.628 44.62 228.246 44.19Z" fill="#CD2044"/>
</g>
</g>
<rect x="1" y="1" width="404" height="184" rx="9" stroke="#CD2044" stroke-width="2"/>
<defs>
<clipPath id="clip0_0_1">
<rect width="406" height="186" rx="10" fill="white"/>
</clipPath>
<clipPath id="clip1_0_1">
<rect width="100.73" height="122.88" fill="white" transform="translate(154 9)"/>
</clipPath>
</defs>
</svg>
