<svg width="51" height="39" viewBox="0 0 51 39" fill="none" xmlns="http://www.w3.org/2000/svg">
<path id="Contact" d="M46.75 0H4.25C3.12283 0 2.04183 0.456546 1.2448 1.2692C0.447767 2.08186 0 3.18406 0 4.33333L0 34.6667C0 35.8159 0.447767 36.9181 1.2448 37.7308C2.04183 38.5435 3.12283 39 4.25 39H46.75C47.8772 39 48.9582 38.5435 49.7552 37.7308C50.5522 36.9181 51 35.8159 51 34.6667V4.33333C51 3.18406 50.5522 2.08186 49.7552 1.2692C48.9582 0.456546 47.8772 0 46.75 0ZM46.75 34.6667H4.25V4.33333H46.75V34.6667ZM44.625 6.5H29.75V17.3333H44.625V6.5ZM42.5 10.8333L37.1875 14.625L31.875 10.8333V8.66667L37.1875 12.4583L42.5 8.66667V10.8333ZM19.125 19.5C20.8158 19.5 22.4373 18.8152 23.6328 17.5962C24.8284 16.3772 25.5 14.7239 25.5 13C25.5 11.2761 24.8284 9.62279 23.6328 8.40381C22.4373 7.18482 20.8158 6.5 19.125 6.5C17.4342 6.5 15.8127 7.18482 14.6172 8.40381C13.4216 9.62279 12.75 11.2761 12.75 13C12.75 14.7239 13.4216 16.3772 14.6172 17.5962C15.8127 18.8152 17.4342 19.5 19.125 19.5ZM19.125 10.8333C19.6886 10.8333 20.2291 11.0616 20.6276 11.4679C21.0261 11.8743 21.25 12.4254 21.25 13C21.25 13.5746 21.0261 14.1257 20.6276 14.5321C20.2291 14.9384 19.6886 15.1667 19.125 15.1667C18.5614 15.1667 18.0209 14.9384 17.6224 14.5321C17.2239 14.1257 17 13.5746 17 13C17 12.4254 17.2239 11.8743 17.6224 11.4679C18.0209 11.0616 18.5614 10.8333 19.125 10.8333ZM31.875 29.445C31.875 24.0283 23.4387 21.6667 19.125 21.6667C14.8112 21.6667 6.375 24.0283 6.375 29.445V32.5H31.875V29.445ZM11.6875 28.1667C13.2175 27.0833 16.3625 26 19.125 26C21.8875 26 25.0112 27.0833 26.5625 28.1667H11.6875Z" fill="white"/>
</svg>
