<svg width="56" height="51" viewBox="0 0 56 51" fill="none" xmlns="http://www.w3.org/2000/svg">
<g id="cv">
<path id="Vector" d="M19.7868 15.7027C21.8774 15.7027 23.5574 14.4948 23.5574 12.9916C23.5574 11.4885 21.8774 10.2806 19.7868 10.2806C17.6961 10.2806 16.0161 11.4885 16.0161 12.9916C16.0161 14.4948 17.6961 15.7027 19.7868 15.7027Z" fill="white"/>
<path id="Vector_2" fill-rule="evenodd" clip-rule="evenodd" d="M27.3652 21.6079C27.3652 18.7089 23.9679 16.6153 19.7866 16.6153C15.6052 16.6153 12.2079 18.7089 12.2079 21.6079V22.9768C12.2079 23.2184 12.3572 23.46 12.5812 23.6211C12.8052 23.7821 13.1412 23.8895 13.4772 23.8895H26.0959C26.4319 23.8895 26.7679 23.7821 26.9919 23.6211C27.2159 23.46 27.3652 23.2184 27.3652 22.9768V21.6079Z" fill="white"/>
<path id="Vector_3" fill-rule="evenodd" clip-rule="evenodd" d="M12.1334 29.5263C12.1334 28.4145 13.387 27.5132 14.9334 27.5132H41.0668C42.6131 27.5132 43.8668 28.4145 43.8668 29.5263C43.8668 30.6381 42.6131 31.5395 41.0668 31.5395H14.9334C13.387 31.5395 12.1334 30.6381 12.1334 29.5263Z" fill="white"/>
<path id="Vector_4" fill-rule="evenodd" clip-rule="evenodd" d="M12.1334 37.579C12.1334 36.4672 13.387 35.5658 14.9334 35.5658H41.0668C42.6131 35.5658 43.8668 36.4672 43.8668 37.579C43.8668 38.6908 42.6131 39.5921 41.0668 39.5921H14.9334C13.387 39.5921 12.1334 38.6908 12.1334 37.579Z" fill="white"/>
<path id="Vector_5" fill-rule="evenodd" clip-rule="evenodd" d="M0 5.36842C0 2.40967 3.35149 0 7.46667 0H32.4427C34.5401 0 36.518 0.639288 37.912 1.69441L37.9348 1.71156L54.0325 14.3329C55.3728 15.3627 56 16.7076 56 17.9842V45.6316C56 48.5904 52.6486 51 48.5333 51H7.46667C3.35149 51 0 48.5904 0 45.6316V5.36842ZM32.4389 5.36842H7.46667V45.6316H48.5333V17.9842C48.5333 17.9774 48.5326 17.9699 48.5307 17.9623L32.4934 5.38834L32.4845 5.38345C32.4766 5.37956 32.4681 5.37602 32.4591 5.3732C32.4483 5.36987 32.4389 5.36842 32.4389 5.36842Z" fill="white"/>
<path id="Vector_6" fill-rule="evenodd" clip-rule="evenodd" d="M32.4423 0C34.5042 0 36.1757 1.20176 36.1757 2.68421V15.3H52.2663C54.3282 15.3 55.9997 16.5018 55.9997 17.9842C55.9997 19.4666 54.3282 20.6684 52.2663 20.6684H32.4423C30.3804 20.6684 28.709 19.4666 28.709 17.9842V2.68421C28.709 1.20176 30.3804 0 32.4423 0Z" fill="white"/>
</g>
</svg>
