<svg width="43" height="41" viewBox="0 0 43 41" fill="none" xmlns="http://www.w3.org/2000/svg">
<path id="Home" d="M36.1771 7.01502L36.1847 7.02233L36.1926 7.02931C40.1872 10.558 42.3325 15.4326 42.25 20.4918L42.2499 20.5L42.25 20.5082C42.3325 25.5672 40.1874 30.4414 36.1724 33.9698L36.1639 33.9772L36.1559 33.985C32.3257 37.6674 27.0367 39.66 21.5068 39.5834L21.5069 39.5832L21.493 39.5834C15.9628 39.66 10.6531 37.6671 6.82363 33.9663L6.81558 33.9585L6.8072 33.9511C2.81223 30.4221 0.667312 25.5668 0.749856 20.5082L0.749989 20.5L0.749856 20.4918C0.667306 15.4328 2.81247 10.5586 6.82748 7.03016L6.83589 7.02278L6.84395 7.01502C10.6741 3.33264 15.9632 1.33999 21.493 1.41662L21.493 1.41681L21.5068 1.41662C27.0372 1.33998 32.3473 3.33297 36.1771 7.01502ZM6.62492 21H10.3749V32.25V32.75H10.8749H18.3124H18.8124V32.25V22.9583H24.1874V32.25V32.75H24.6874H32.1249H32.6249V32.25V21H37.4374H38.7855L37.7635 20.1209L21.826 6.4126L21.4885 6.12229L21.1611 6.42399L6.28608 20.1323L5.34456 21H6.62492Z" fill="#FFEBEB" stroke="white"/>
</svg>
