<svg width="188" height="70" viewBox="0 0 188 70" fill="none" xmlns="http://www.w3.org/2000/svg">
<g clip-path="url(#clip0_172_72)">
<path d="M183.369 0.376343H4.63056C2.32892 0.376343 0.463074 1.8928 0.463074 3.76344V66.2366C0.463074 68.1072 2.32892 69.6237 4.63056 69.6237H183.369C185.671 69.6237 187.537 68.1072 187.537 66.2366V3.76344C187.537 1.8928 185.671 0.376343 183.369 0.376343Z" fill="#1D1D20" stroke="white" stroke-width="2"/>
<mask id="mask0_172_72" style="mask-type:luminance" maskUnits="userSpaceOnUse" x="0" y="0" width="188" height="70">
<path d="M183.369 0H4.63054C2.07316 0 0 1.68495 0 3.76344V66.2366C0 68.315 2.07316 70 4.63054 70H183.369C185.927 70 188 68.315 188 66.2366V3.76344C188 1.68495 185.927 0 183.369 0Z" fill="white"/>
</mask>
<g mask="url(#mask0_172_72)">
<path d="M30.4526 51.1711H34.0991L37.1524 61.6971L40.3504 51.1711H42.955L46.0951 61.7437L49.2065 51.1711H52.853L48.2655 66.6129H44.4021L41.6238 57.1456L38.8309 66.6129H34.9818L30.4526 51.1711ZM55.1826 52.7589C55.1826 52.249 55.4091 51.8101 55.8629 51.4417C56.3162 51.0729 56.8612 50.8889 57.4979 50.8889C58.1346 50.8889 58.6796 51.0729 59.1329 51.4417C59.5863 51.8101 59.8132 52.249 59.8132 52.7589C59.8132 53.276 59.5863 53.7193 59.1329 54.0878C58.6796 54.4562 58.1346 54.6406 57.4979 54.6406C56.8612 54.6406 56.3162 54.4562 55.8629 54.0878C55.4091 53.7193 55.1826 53.276 55.1826 52.7589ZM55.66 56.4986H59.3645V66.6129H55.66V56.4986ZM63.3583 50.9122H67.0627V66.6129H63.3583V50.9122ZM74.7902 56.4986V58.1098C74.9638 58.0157 75.2194 57.8354 75.557 57.569C75.8946 57.3021 76.2178 57.079 76.5266 56.8987C76.8448 56.7105 77.2212 56.5615 77.6551 56.4516C78.0987 56.3342 78.4993 56.2751 78.8563 56.2751C79.4254 56.2751 80.0426 56.4399 80.7085 56.7692C81.3739 57.0906 81.9286 57.6668 82.3727 58.4982C83.1442 57.6981 83.8966 57.1298 84.6301 56.7926C85.3728 56.4478 86.0623 56.2751 86.699 56.2751C87.8279 56.2751 88.7828 56.6556 89.5644 57.4158C90.3456 58.1685 90.7364 59.0977 90.7364 60.2034V66.6129H87.032V61.0031C87.032 60.4465 86.844 59.9798 86.4675 59.6035C86.0915 59.2192 85.6382 59.0273 85.1075 59.0273C84.4708 59.0273 83.9207 59.2429 83.4576 59.6739C82.9946 60.1051 82.7631 60.6189 82.7631 61.2146V66.6129H79.0878V61.1442C79.0878 60.556 78.8947 60.0622 78.509 59.6622C78.1325 59.2546 77.6746 59.0506 77.1342 59.0506C76.4975 59.0506 75.9478 59.2742 75.4848 59.7213C75.0217 60.1601 74.7902 60.6892 74.7902 61.3087V66.6129H71.0566V56.4986H74.7902ZM105.945 62.2733H97.0747C97.1228 62.924 97.3831 63.4531 97.8558 63.8611C98.3383 64.2686 98.8977 64.4722 99.5344 64.4722C100.673 64.4722 101.565 64.053 102.211 63.2141L105.612 64.1313C104.348 65.9268 102.385 66.8244 99.7224 66.8244C97.7642 66.8244 96.2065 66.3423 95.0488 65.3781C93.8912 64.4135 93.3124 63.1159 93.3124 61.4852C93.3124 60.019 93.9199 58.7879 95.1354 57.7921C96.3606 56.7967 97.8656 56.2988 99.6502 56.2988C101.445 56.2988 102.94 56.8242 104.136 57.8746C105.342 58.9174 105.945 60.2229 105.945 61.7912V62.2733ZM97.1034 60.2504H102.11C101.763 58.9882 100.967 58.3567 99.7224 58.3567C99.0089 58.3567 98.4152 58.5215 97.9429 58.8508C97.4799 59.1801 97.1997 59.6468 97.1034 60.2504ZM112.095 56.4986V57.9923H112.153C112.519 57.4903 112.944 57.0944 113.426 56.8046C113.918 56.5065 114.372 56.3575 114.786 56.3575C115.037 56.3575 115.264 56.3733 115.466 56.4046V59.6976C115.158 59.6505 114.854 59.6272 114.555 59.6272C113.793 59.6272 113.2 59.8466 112.775 60.2858C112.36 60.7167 112.153 61.3245 112.153 62.1084V66.6129H108.39V56.4986H112.095ZM136.593 52.5707L134.046 54.8405C132.706 54.1973 131.741 53.8759 131.152 53.8759C130.699 53.8759 130.308 54.017 129.98 54.2993C129.652 54.5736 129.488 54.9029 129.488 55.2872C129.488 56.0478 130.337 56.7064 132.035 57.263C133.279 57.6943 134.22 58.0864 134.857 58.4391C135.493 58.7842 136.024 59.2663 136.449 59.8857C136.883 60.5052 137.1 61.1755 137.1 61.8969C137.1 63.222 136.439 64.3744 135.117 65.3544C133.806 66.3344 132.252 66.8244 130.458 66.8244C128.49 66.8244 126.546 66.0717 124.626 64.5663L127.318 62.0143C128.523 63.026 129.652 63.5314 130.704 63.5314C131.196 63.5314 131.669 63.3553 132.122 63.0022C132.575 62.6417 132.802 62.2654 132.802 61.8732C132.802 61.0656 131.755 60.3562 129.662 59.7446C128.466 59.3916 127.617 59.0627 127.115 58.7567C126.613 58.4432 126.189 57.9924 125.842 57.4041C125.504 56.8084 125.335 56.2006 125.335 55.5815C125.335 54.2093 125.885 53.0957 126.985 52.2411C128.084 51.3868 129.522 50.9592 131.297 50.9592C133.4 50.9592 135.166 51.4963 136.593 52.5707ZM139.024 64.931C139.024 64.4135 139.251 63.9706 139.704 63.6021C140.158 63.2337 140.703 63.0493 141.339 63.0493C141.976 63.0493 142.521 63.2337 142.975 63.6021C143.428 63.9706 143.655 64.4135 143.655 64.931C143.655 65.4406 143.428 65.8798 142.975 66.2482C142.521 66.6167 141.976 66.8011 141.339 66.8011C140.703 66.8011 140.158 66.6167 139.704 66.2482C139.251 65.8798 139.024 65.4406 139.024 64.931Z" fill="white"/>
<path d="M22.0964 63.0023L6.00525 57.5336V55.2755L22.0964 49.8069V52.5233L10.2451 56.4046L22.0964 60.2621V63.0023Z" fill="#CD2044"/>
<path d="M165.92 51.3123L182.011 56.7572V59.039L165.92 64.5076V61.7675L177.771 57.9099L165.92 54.0287V51.3123Z" fill="#CD2044"/>
<path d="M158.491 47.0076H160.661L153.281 68.0359H151.11L158.491 47.0076Z" fill="#CD2044"/>
<path d="M145.399 12.7957C147.701 12.7957 149.566 11.2792 149.566 9.40858C149.566 7.53794 147.701 6.02148 145.399 6.02148C143.097 6.02148 141.232 7.53794 141.232 9.40858C141.232 11.2792 143.097 12.7957 145.399 12.7957Z" fill="#E5224A"/>
<path d="M158.365 12.7957C160.666 12.7957 162.532 11.2792 162.532 9.40858C162.532 7.53794 160.666 6.02148 158.365 6.02148C156.063 6.02148 154.197 7.53794 154.197 9.40858C154.197 11.2792 156.063 12.7957 158.365 12.7957Z" fill="#E5BA22"/>
<path d="M171.33 12.7957C173.632 12.7957 175.498 11.2792 175.498 9.40858C175.498 7.53794 173.632 6.02148 171.33 6.02148C169.028 6.02148 167.163 7.53794 167.163 9.40858C167.163 11.2792 169.028 12.7957 171.33 12.7957Z" fill="#55E522"/>
<mask id="mask1_172_72" style="mask-type:luminance" maskUnits="userSpaceOnUse" x="71" y="3" width="47" height="47">
<path d="M117.954 3.38708H71.3104V49.6322H117.954V3.38708Z" fill="white"/>
</mask>
<g mask="url(#mask1_172_72)">
<path fill-rule="evenodd" clip-rule="evenodd" d="M85.4987 17.3117C84.9903 17.3267 84.6092 17.4133 84.3457 17.5601C84.1957 17.6429 84.0869 17.7482 84.0142 17.8762C83.9368 18.0154 83.9007 18.1886 83.9053 18.3843C83.9234 18.9601 84.2911 19.7128 84.9949 20.5783L85.0042 20.5896L87.288 23.6004C88.2048 24.8085 89.1629 26.0391 90.3571 26.9423C91.5059 27.8117 92.8951 28.3988 94.7385 28.4025C96.732 28.4063 98.1892 27.7966 99.3746 26.8783C100.605 25.9224 101.576 24.6128 102.534 23.3068L105.109 19.7955C105.59 18.8886 105.763 18.2826 105.654 17.9251C105.59 17.7144 105.309 17.609 104.828 17.5902C104.728 17.5864 104.619 17.5864 104.514 17.5864C104.401 17.5902 104.278 17.5939 104.156 17.6052C104.087 17.609 104.019 17.6052 103.956 17.5939C103.729 17.6052 103.493 17.5902 103.252 17.5638L104.132 14.331C97.5946 15.1853 92.7048 11.1622 85.7988 13.5257L86.2933 17.3343C86.003 17.3493 85.7395 17.3418 85.4987 17.3117ZM87.406 40.3025H88.8633C89.8033 40.3025 90.439 40.3402 90.7701 40.4117C91.1017 40.4832 91.3559 40.5998 91.5286 40.7654C91.7013 40.9273 91.8101 41.1117 91.8509 41.3111C91.8963 41.5144 91.9143 41.9058 91.9143 42.4966V44.6719C91.9143 45.2289 91.8828 45.6015 91.8189 45.7896C91.7555 45.9778 91.6467 46.1246 91.4879 46.23C91.329 46.3353 91.1383 46.4106 90.9021 46.452C90.6706 46.4934 90.321 46.516 89.8579 46.516H87.4014V40.3025H87.406ZM89.3583 41.3638V45.4547C89.6352 45.4547 89.8033 45.4058 89.8667 45.3154C89.9302 45.2214 89.9621 44.9692 89.9621 44.5515V42.1353C89.9621 41.8531 89.9487 41.6724 89.9301 41.5934C89.9075 41.5144 89.8621 41.4541 89.7852 41.4203C89.7079 41.3826 89.5671 41.3638 89.3583 41.3638ZM92.9724 40.3025H96.2189V41.5445H94.9205V42.73H96.1328V43.9079H94.9205V45.274H96.3504V46.516H92.9678V40.3025H92.9724ZM101.858 40.3025L100.873 46.5122H97.9215L96.7908 40.3025H98.8476C99.0792 42.0149 99.2473 43.4638 99.3561 44.6455C99.4607 43.4488 99.5742 42.3875 99.6784 41.4579L99.8057 40.2988H101.858V40.3025ZM85.6853 39.9714V41.1418H85.4899C85.3126 41.1418 85.1764 41.1719 85.0857 41.2359C84.9949 41.2999 84.9315 41.3939 84.8949 41.5294C84.8722 41.6009 84.8634 41.7966 84.8588 42.1165C84.8541 42.4364 84.8134 42.6923 84.7361 42.8767C84.6773 43.0197 84.5953 43.1326 84.4911 43.2192C84.4092 43.2832 84.2776 43.3472 84.0915 43.4149C84.2823 43.4902 84.4272 43.5654 84.5184 43.6482C84.6134 43.7273 84.6907 43.8515 84.7588 44.0133C84.8268 44.1751 84.8588 44.4386 84.8588 44.7961C84.8588 45.1197 84.8815 45.3267 84.9176 45.4246C84.9588 45.5224 85.0222 45.5939 85.1176 45.6316C85.213 45.673 85.3992 45.6918 85.6807 45.6918V46.8472H85.1403C84.5819 46.8472 84.1823 46.7945 83.9461 46.6929C83.7099 46.5912 83.5419 46.4445 83.4423 46.2488C83.3423 46.0531 83.2923 45.7633 83.2923 45.3719C83.2923 45.2853 83.2969 45.1988 83.3015 45.116C83.3062 45.0633 83.3062 45.0106 83.3062 44.9541C83.3062 44.6757 83.2742 44.48 83.2149 44.3633C83.1561 44.2466 83.07 44.1601 82.9519 44.1074C82.8385 44.0547 82.675 44.0283 82.4569 44.0208V42.7977C82.6792 42.7977 82.8473 42.7676 82.9566 42.7111C83.0654 42.6547 83.1515 42.5644 83.2108 42.4477C83.2696 42.331 83.2969 42.1278 83.2969 41.8493V41.7289C83.2923 41.6724 83.2923 41.6197 83.2923 41.5633C83.2923 41.1418 83.333 40.8332 83.4196 40.6488C83.5057 40.4606 83.6192 40.3138 83.7692 40.216C83.8827 40.1369 84.0322 40.0805 84.2276 40.0429C84.4819 39.9939 84.7727 39.9676 85.0996 39.9676H85.6853V39.9714ZM103.579 39.9714V41.1418H103.769C103.946 41.1418 104.083 41.1719 104.174 41.2359C104.264 41.2999 104.328 41.3939 104.364 41.5294C104.387 41.6009 104.396 41.7966 104.401 42.1165C104.405 42.4364 104.446 42.6923 104.523 42.8767C104.582 43.0197 104.664 43.1326 104.768 43.2192C104.85 43.2832 104.982 43.3472 105.168 43.4149C104.977 43.4902 104.832 43.5654 104.741 43.6482C104.646 43.7273 104.569 43.8515 104.501 44.0133C104.433 44.1751 104.401 44.4386 104.401 44.7961C104.401 45.1197 104.383 45.3267 104.342 45.4246C104.301 45.5224 104.237 45.5939 104.142 45.6316C104.046 45.673 103.86 45.6918 103.579 45.6918V46.8472H104.119C104.682 46.8472 105.077 46.7945 105.313 46.6929C105.549 46.5912 105.718 46.4445 105.817 46.2488C105.917 46.0531 105.967 45.7633 105.967 45.3719C105.967 45.2853 105.962 45.1988 105.958 45.116C105.953 45.0633 105.953 45.0106 105.953 44.9541C105.953 44.6757 105.985 44.48 106.044 44.3633C106.103 44.2466 106.189 44.1601 106.307 44.1074C106.421 44.0547 106.584 44.0283 106.802 44.0208V42.7977C106.58 42.7977 106.412 42.7676 106.303 42.7111C106.189 42.6547 106.108 42.5644 106.049 42.4477C105.99 42.331 105.962 42.1278 105.962 41.8493V41.7289C105.967 41.6724 105.967 41.6197 105.967 41.5633C105.967 41.1418 105.926 40.8332 105.84 40.6488C105.754 40.4606 105.636 40.3138 105.49 40.216C105.377 40.1369 105.227 40.0805 105.032 40.0429C104.778 39.9939 104.487 39.9676 104.16 39.9676H103.579V39.9714ZM105.69 16.6305C105.786 13.33 106.516 9.99555 103.683 7.28964C101.667 5.36275 96.4097 3.54501 92.9997 3.39071C91.5606 3.32673 92.1097 4.2977 90.6886 4.70415C87.7556 5.5434 85.1903 7.32727 84.3503 9.80361C84.2142 10.2101 84.1188 10.6203 84.0688 11.0305C83.9734 12.7542 84.0281 14.809 84.1776 16.4423C83.9734 16.5063 83.7873 16.5853 83.6238 16.6757C83.2696 16.8714 83.0107 17.1273 82.8385 17.4321C82.675 17.7219 82.6023 18.0531 82.6157 18.4181C82.6431 19.1934 83.0742 20.1343 83.91 21.1692L86.1938 24.18C86.9925 25.2337 87.8283 26.3063 88.8452 27.2133C88.7952 27.3337 88.8498 27.202 88.8179 27.281C88.5364 27.9886 88.064 29.1703 87.6422 29.8326C84.868 31.338 78.5159 31.7257 76.0506 32.866C69.3215 35.9746 71.7506 42.3837 71.6687 47.6751C71.8007 48.8568 72.6087 49.5343 74.1979 49.6359H75.9186L74.0344 37.781C73.889 36.859 74.679 36.1025 75.6509 36.1025H84.4911H94.9246C94.5662 34.1832 88.5771 32.3316 88.3641 30.8864C88.4229 30.8525 88.4775 30.8074 88.5229 30.7547C89.0314 30.1676 89.5579 28.9445 89.9214 28.0525C91.2063 28.9144 92.7502 29.4789 94.7339 29.4826C96.5139 29.4864 97.935 29.0762 99.1292 28.4101C99.2473 28.5493 99.3653 28.6961 99.4922 28.8504C100.06 29.5429 100.723 30.3445 101.34 30.9165C101.209 32.5611 96.0147 32.58 95.4243 36.1025H113.917C114.889 36.1025 115.683 36.859 115.534 37.781L113.649 49.6359H115.37C116.96 49.5343 117.768 48.8568 117.904 47.6751C117.454 42.6735 119.715 35.7262 113.522 32.866C111.088 31.7407 104.868 31.3493 102.039 29.8929C101.563 29.4036 101.05 28.7789 100.596 28.2294C100.45 28.0488 100.31 27.8794 100.178 27.7251L100.246 27.6762C101.604 26.6224 102.625 25.2488 103.629 23.8789L106.235 20.3224C106.249 20.3036 106.262 20.281 106.276 20.2622C106.884 19.1144 107.084 18.2714 106.902 17.6767C106.73 17.1235 106.33 16.7923 105.69 16.6305Z" fill="#CD2044"/>
</g>
</g>
</g>
<defs>
<clipPath id="clip0_172_72">
<rect width="188" height="70" fill="white"/>
</clipPath>
</defs>
</svg>
