<svg width="47" height="49" viewBox="0 0 47 49" fill="none" xmlns="http://www.w3.org/2000/svg">
<g id="information-outline" clip-path="url(#clip0_131_19)">
<path id="Vector" d="M42.5 13C43.7903 13 44.7993 13.3869 45.5897 14.1185C46.4286 14.9152 46.8333 15.7464 46.8333 16.75V40.125C46.8333 41.1285 46.4286 41.9597 45.5899 42.7563C44.7994 43.488 43.7904 43.875 42.5 43.875H3.83333C2.54297 43.875 1.53398 43.4881 0.743537 42.7564C-0.0952959 41.9597 -0.5 41.1286 -0.5 40.125V16.75C-0.5 15.7464 -0.0952544 14.9152 0.743665 14.1185C1.53409 13.3869 2.54304 13 3.83333 13H13.5H14V12.5V8.25C14 7.16899 14.4153 6.30716 15.2268 5.61231L15.227 5.61244L15.2368 5.60358C16.0292 4.888 17.0415 4.5 18.3333 4.5H28C29.2919 4.5 30.3042 4.888 31.0965 5.60358L31.0964 5.60371L31.1065 5.61231C31.9181 6.30716 32.3333 7.16899 32.3333 8.25V12.5V13H32.8333H42.5ZM3.83333 16.25H3.33333V16.75V40.125V40.625H3.83333H42.5H43V40.125V16.75V16.25H42.5H3.83333ZM28 13H28.5V12.5V8.25V7.75H28H18.3333H17.8333V8.25V12.5V13H18.3333H28Z" fill="#FFFDFD" stroke="white"/>
</g>
<defs>
<clipPath id="clip0_131_19">
<rect width="47" height="49" fill="white"/>
</clipPath>
</defs>
</svg>
